<?xml version="1.0" encoding="UTF-8"?>
<svg width="32" height="32" version="1.1" viewBox="0 0 8.4667 8.4667" xmlns="http://www.w3.org/2000/svg" xmlns:cc="http://creativecommons.org/ns#" xmlns:dc="http://purl.org/dc/elements/1.1/" xmlns:rdf="http://www.w3.org/1999/02/22-rdf-syntax-ns#">
 <metadata>
  <rdf:RDF>
   <cc:Work rdf:about="">
    <dc:format>image/svg+xml</dc:format>
    <dc:type rdf:resource="http://purl.org/dc/dcmitype/StillImage"/>
    <dc:title/>
   </cc:Work>
  </rdf:RDF>
 </metadata>
 <path d="m5.1276 0.55006a0.33486 0.33486 0 0 0-0.17179 0.046654c-0.32289 0.19127-0.54614 0.4344-0.72161 0.71028-0.17549-0.27632-0.4001-0.51879-0.72336-0.71028a0.33486 0.33486 0 0 0-0.16961-0.046219 0.33486 0.33486 0 0 0-0.28864 0.16307 0.33486 0.33486 0 0 0 0.11685 0.46c0.30151 0.1786 0.46695 0.34112 0.57206 0.54197 0.087422 0.16705 0.13554 0.38183 0.14999 0.67321a2.2075 2.2075 0 0 0-1.0225-0.25115 2.2075 2.2075 0 0 0-2.2076 2.2076 2.2075 2.2075 0 0 0 1.3682 2.041 1.3643 1.3643 0 0 0-0.0039242 0.10421 1.3643 1.3643 0 0 0 1.3643 1.3639 1.3643 1.3643 0 0 0 0.80358-0.26161 1.3643 1.3643 0 0 0 0.88294 0.32396 1.3643 1.3643 0 0 0 1.3643-1.3639 1.3643 1.3643 0 0 0-0.010028-0.16351 2.2075 2.2075 0 0 0 1.3743-2.0441 2.2075 2.2075 0 0 0-2.2076-2.2076 2.2075 2.2075 0 0 0-1.0225 0.25115c0.014453-0.29138 0.062569-0.50617 0.14999-0.67321 0.10511-0.20085 0.27055-0.36337 0.57206-0.54197a0.33486 0.33486 0 0 0 0.11685-0.46 0.33486 0.33486 0 0 0-0.28647-0.16351zm-2.5917 2.6296a0.84321 0.84321 0 0 1 0.010901 0 0.84321 0.84321 0 0 1 0.84326 0.84326 0.84321 0.84321 0 0 1-0.84326 0.84326 0.84321 0.84321 0 0 1-0.84326-0.84326 0.84321 0.84321 0 0 1 0.83236-0.84326zm3.3726 0a0.84321 0.84321 0 0 1 0.011336 0 0.84321 0.84321 0 0 1 0.84326 0.84326 0.84321 0.84321 0 0 1-0.84326 0.84326 0.84321 0.84321 0 0 1-0.84326-0.84326 0.84321 0.84321 0 0 1 0.83193-0.84326z" fill="#292929" fill-rule="evenodd"/>
 <g display="none" fill="none" stroke="#000" stroke-linecap="round" stroke-opacity=".20496" stroke-width="1.0583">
  <path d="m4.2333 5.8208v1.8521"/>
  <path d="m2.6458 5.2917-0.52917 1.5875"/>
  <path d="m5.8208 5.2917 0.52917 1.5875"/>
 </g>
</svg>
