<?xml version="1.0" encoding="UTF-8"?>
<svg width="36" height="36" version="1.1" viewBox="0 0 9.525 9.525" xmlns="http://www.w3.org/2000/svg" xmlns:cc="http://creativecommons.org/ns#" xmlns:dc="http://purl.org/dc/elements/1.1/" xmlns:rdf="http://www.w3.org/1999/02/22-rdf-syntax-ns#">
 <metadata>
  <rdf:RDF>
   <cc:Work rdf:about="">
    <dc:format>image/svg+xml</dc:format>
    <dc:type rdf:resource="http://purl.org/dc/dcmitype/StillImage"/>
    <dc:title/>
   </cc:Work>
  </rdf:RDF>
 </metadata>
 <g fill="none" stroke="#333" stroke-linecap="round" stroke-linejoin="round" stroke-width=".52917">
  <path d="m-0.26458 1.0583 1.0583 1.0583 1.5875-1.5875 1.5875 1.5875 1.5875-1.5875 1.5875 1.5875 1.5875-1.5875 1.0583 1.0583"/>
  <path d="m-0.26458 3.4396 1.0583 1.0583 1.5875-1.5875 1.5875 1.5875 1.5875-1.5875 1.5875 1.5875 1.5875-1.5875 1.0583 1.0583"/>
  <path d="m-0.26458 5.8208 1.0583 1.0583 1.5875-1.5875 1.5875 1.5875 1.5875-1.5875 1.5875 1.5875 1.5875-1.5875 1.0583 1.0583"/>
  <path d="m-0.26458 8.2021 1.0583 1.0583 1.5875-1.5875 1.5875 1.5875 1.5875-1.5875 1.5875 1.5875 1.5875-1.5875 1.0583 1.0583"/>
 </g>
</svg>
