<?xml version="1.0" encoding="UTF-8"?>
<svg width="32" height="32" version="1.1" viewBox="0 0 8.4667 8.4667" xmlns="http://www.w3.org/2000/svg" xmlns:cc="http://creativecommons.org/ns#" xmlns:dc="http://purl.org/dc/elements/1.1/" xmlns:rdf="http://www.w3.org/1999/02/22-rdf-syntax-ns#">
 <metadata>
  <rdf:RDF>
   <cc:Work rdf:about="">
    <dc:format>image/svg+xml</dc:format>
    <dc:type rdf:resource="http://purl.org/dc/dcmitype/StillImage"/>
    <dc:title/>
   </cc:Work>
  </rdf:RDF>
 </metadata>
 <path d="m7.9375 0.52917h-2.3151l-1.3891 1.3891-1.3891-1.3891h-2.3151v3.2411l1.3891 1.3891-0.92604 0.92604v1.8521h2.3151l0.92604-0.92604 0.92604 0.92604h2.3151v-1.8521l-0.92604-0.92604 1.3891-1.3891zm-6.0315 0.92604h4.514e-4c0.00392-3.32e-5 0.00784-3.32e-5 0.011757 0 0.38358 0 0.69453 0.31095 0.69453 0.69453s-0.31095 0.69453-0.69453 0.69453c-0.38358 0-0.69453-0.31095-0.69453-0.69453-5.85e-5 -0.37886 0.30352-0.68787 0.68232-0.69453zm4.6302-1e-7h4.63e-4c0.00392-3.32e-5 0.00784-3.32e-5 0.011756 0 0.38358 0 0.69453 0.31095 0.69453 0.69453 0 0.38358-0.31095 0.69453-0.69453 0.69453-0.38358 0-0.69453-0.31095-0.69453-0.69453-5.86e-5 -0.37886 0.30352-0.68787 0.68232-0.69453z" fill="#008066"/>
 <g display="none" fill="none" stroke="#000" stroke-linecap="round" stroke-opacity=".20496" stroke-width="1.0583">
  <path d="m4.2333 5.8208v1.8521"/>
  <path d="m2.6458 5.2917-0.52917 1.5875"/>
  <path d="m5.8208 5.2917 0.52917 1.5875"/>
 </g>
</svg>
