<?xml version="1.0" encoding="UTF-8"?>
<svg width="32" height="32" version="1.1" viewBox="0 0 8.4667 8.4667" xmlns="http://www.w3.org/2000/svg" xmlns:cc="http://creativecommons.org/ns#" xmlns:dc="http://purl.org/dc/elements/1.1/" xmlns:rdf="http://www.w3.org/1999/02/22-rdf-syntax-ns#">
 <metadata>
  <rdf:RDF>
   <cc:Work rdf:about="">
    <dc:format>image/svg+xml</dc:format>
    <dc:type rdf:resource="http://purl.org/dc/dcmitype/StillImage"/>
    <dc:title/>
   </cc:Work>
  </rdf:RDF>
 </metadata>
 <path d="m3.2964 3.9112a0.9369 0.9369 0 0 1-0.9369 0.9369 0.9369 0.9369 0 0 1-0.9369-0.9369 0.9369 0.9369 0 0 1 0.9369-0.9369 0.9369 0.9369 0 0 1 0.9369 0.9369m3.7476 0a0.9369 0.9369 0 0 1-0.9369 0.9369 0.9369 0.9369 0 0 1-0.9369-0.9369 0.9369 0.9369 0 0 1 0.9369-0.9369 0.9369 0.9369 0 0 1 0.9369 0.9369m-4.3266-2.095a2.4528 2.4528 0 0 0-2.4529 2.4529 2.4528 2.4528 0 0 0 1.5203 2.2683 1.5159 1.5159 0 0 0-0.0043602 0.1153 1.5159 1.5159 0 0 0 1.5159 1.5159 1.5159 1.5159 0 0 0 0.89287-0.29116 1.5159 1.5159 0 0 0 0.98104 0.36044 1.5159 1.5159 0 0 0 1.5159-1.5159 1.5159 1.5159 0 0 0-0.011143-0.18167 2.4528 2.4528 0 0 0 1.527-2.2712 2.4528 2.4528 0 0 0-2.4529-2.4529 2.4528 2.4528 0 0 0-1.5159 0.52468 2.4528 2.4528 0 0 0-1.5159-0.52468z" fill="#01a62d" fill-opacity=".79908" fill-rule="evenodd"/>
 <path d="m5.2917 0.54134c-0.79375 0.47019-1.0583 0.99936-1.0583 1.9987m-1.0583-1.9987c0.79375 0.47019 1.0583 0.99936 1.0583 1.9987" fill="none" stroke="#01a62d" stroke-linecap="round" stroke-opacity=".8" stroke-width=".52917"/>
 <g display="none" fill="none" stroke="#000" stroke-linecap="round" stroke-opacity=".20496" stroke-width="1.0583">
  <path d="m4.2333 5.8208v1.8521"/>
  <path d="m2.6458 5.2917-0.52917 1.5875"/>
  <path d="m5.8208 5.2917 0.52917 1.5875"/>
 </g>
</svg>
