<?xml version="1.0" encoding="UTF-8"?>
<svg width="32" height="32" version="1.1" viewBox="0 0 8.4667 8.4667" xmlns="http://www.w3.org/2000/svg" xmlns:cc="http://creativecommons.org/ns#" xmlns:dc="http://purl.org/dc/elements/1.1/" xmlns:rdf="http://www.w3.org/1999/02/22-rdf-syntax-ns#">
 <metadata>
  <rdf:RDF>
   <cc:Work rdf:about="">
    <dc:format>image/svg+xml</dc:format>
    <dc:type rdf:resource="http://purl.org/dc/dcmitype/StillImage"/>
    <dc:title/>
   </cc:Work>
  </rdf:RDF>
 </metadata>
 <path transform="scale(.26458)" d="m2 12c0 6 3 8 5 9 1 1 1 1-1 4s2 6 4 2c1-3 1-4 3-4 2 1 0.8 2 0.8 5 0 4 4.5 4 4.5 0 0-3-1.3-4 0.7-5 2 0 2 1 3 4 2 4 6 1 4-2s-2-3-1-4c2-1 5-3 5-9-1-15-27-15-28 0zm23 1c-1 4-9-2-9-1 0-1-8 5-9 1-1-10 19-10 18 0z" color="#000000" color-rendering="auto" dominant-baseline="auto" image-rendering="auto" shape-rendering="auto" solid-color="#000000" stop-color="#000000" style="font-feature-settings:normal;font-variant-alternates:normal;font-variant-caps:normal;font-variant-east-asian:normal;font-variant-ligatures:normal;font-variant-numeric:normal;font-variant-position:normal;font-variation-settings:normal;inline-size:0;isolation:auto;mix-blend-mode:normal;shape-margin:0;shape-padding:0;text-decoration-color:#000000;text-decoration-line:none;text-decoration-style:solid;text-indent:0;text-orientation:mixed;text-transform:none;white-space:normal"/>
 <g display="none" fill="none" stroke="#000" stroke-linecap="round" stroke-opacity=".20496" stroke-width="1.0583">
  <path d="m4.2333 5.8208v1.8521"/>
  <path d="m2.6458 5.2917-0.52917 1.5875"/>
  <path d="m5.8208 5.2917 0.52917 1.5875"/>
 </g>
</svg>
