<?xml version="1.0" encoding="UTF-8"?>
<svg width="32" height="32" version="1.1" viewBox="0 0 8.4667 8.4667" xmlns="http://www.w3.org/2000/svg" xmlns:cc="http://creativecommons.org/ns#" xmlns:dc="http://purl.org/dc/elements/1.1/" xmlns:rdf="http://www.w3.org/1999/02/22-rdf-syntax-ns#">
 <metadata>
  <rdf:RDF>
   <cc:Work rdf:about="">
    <dc:format>image/svg+xml</dc:format>
    <dc:type rdf:resource="http://purl.org/dc/dcmitype/StillImage"/>
    <dc:title/>
   </cc:Work>
  </rdf:RDF>
 </metadata>
 <g fill="none" stroke="#000" stroke-linecap="round" stroke-width="1.0583">
  <path d="m4.2333 5.8208v1.8521"/>
  <path d="m2.6458 5.2917-0.52917 1.5875"/>
  <path d="m5.8208 5.2917 0.52917 1.5875"/>
 </g>
 <path d="m4.2324 0.13281c-1.6742 0-3.041 1.3688-3.041 3.043 0 1.6742 1.3668 3.041 3.041 3.041 1.6742 0 3.043-1.3668 3.043-3.041 0-1.6742-1.3688-3.043-3.043-3.043zm0 1.0586c1.1022 0 1.9844 0.88217 1.9844 1.9844 0 1.1022-0.39596-0.26536-1.4543-7.812e-4 -1.0583 0.26458-2.5145 1.103-2.5145 7.812e-4 0-1.1022 0.88217-1.9844 1.9844-1.9844z" color="#000000" color-rendering="auto" dominant-baseline="auto" image-rendering="auto" shape-rendering="auto" solid-color="#000000" stop-color="#000000" style="font-feature-settings:normal;font-variant-alternates:normal;font-variant-caps:normal;font-variant-east-asian:normal;font-variant-ligatures:normal;font-variant-numeric:normal;font-variant-position:normal;font-variation-settings:normal;inline-size:0;isolation:auto;mix-blend-mode:normal;shape-margin:0;shape-padding:0;text-decoration-color:#000000;text-decoration-line:none;text-decoration-style:solid;text-indent:0;text-orientation:mixed;text-transform:none;white-space:normal"/>
</svg>
