<?xml version="1.0" encoding="UTF-8"?>
<svg width="32" height="32" version="1.1" viewBox="0 0 8.4667 8.4667" xmlns="http://www.w3.org/2000/svg" xmlns:cc="http://creativecommons.org/ns#" xmlns:dc="http://purl.org/dc/elements/1.1/" xmlns:rdf="http://www.w3.org/1999/02/22-rdf-syntax-ns#">
 <metadata>
  <rdf:RDF>
   <cc:Work rdf:about="">
    <dc:format>image/svg+xml</dc:format>
    <dc:type rdf:resource="http://purl.org/dc/dcmitype/StillImage"/>
    <dc:title/>
   </cc:Work>
  </rdf:RDF>
 </metadata>
 <path transform="scale(.26458)" d="m32 4.5354e-7h-10l-6 6-6-6h-10l-1e-15 14 6 6-4 4v8h10l4-4 4 4h10v-8l-4-4 6-6zm-26.053 4h0.00195c0.01693-1.433e-4 0.033858-1.433e-4 0.050784 0 1.6569 0 3 1.3431 3 3 0 1.6569-1.3431 3-3 3s-3-1.3431-3-3c-2.528e-4 -1.6365 1.311-2.9712 2.9473-3zm20-5e-7h2e-3c0.01693-1.433e-4 0.03385-1.433e-4 0.05078 0 1.6569 0 3 1.3431 3 3 0 1.6569-1.3431 3-3 3s-3-1.3431-3-3c-2.53e-4 -1.6365 1.311-2.9712 2.9473-3z" fill="#008066"/>
 <g display="none" fill="none" stroke="#000" stroke-linecap="round" stroke-opacity=".20496" stroke-width="1.0583">
  <path d="m4.2333 5.8208v1.8521"/>
  <path d="m2.6458 5.2917-0.52917 1.5875"/>
  <path d="m5.8208 5.2917 0.52917 1.5875"/>
 </g>
</svg>
